# xmcd CD database file
#
# Track frame offsets:
#	150
#	10338
#	33304
#	57272
#	73284
#	90544
#	106660
#	128340
#
# Disc length: 2558 seconds
#
# Revision: 0
# Processed by: cddbd v1.4PL0 Copyright (c) Steve Scherf et al.
# Submitted via: CDex 1.50Beta7
#
DISCID=5d09fc08
DTITLE=Lynyrd Skynyrd - Gold and Platinum  
DYEAR=1979
DGENRE=Country
TTITLE0=Down South Jukin' 
TTITLE1=Saturday Night Special 
TTITLE2=Gimme Three Steps 
TTITLE3=What's Your Name?
TTITLE4=You Got That Right 
TTITLE5=Gimme Back My Bullets 
TTITLE6=Sweet Home Alabama 
TTITLE7=Free Bird 
EXTD=YEAR: 1979
EXTT0=
EXTT1=
EXTT2=
EXTT3=
EXTT4=
EXTT5=
EXTT6=
EXTT7=
PLAYORDER=
